<?xml version="1.0" standalone="no"?>
<!DOCTYPE svg PUBLIC "-//W3C//DTD SVG 20010904//EN"
 "http://www.w3.org/TR/2001/REC-SVG-20010904/DTD/svg10.dtd">
<svg version="1.0" xmlns="http://www.w3.org/2000/svg"
 width="512.000000pt" height="512.000000pt" viewBox="0 0 512.000000 512.000000"
 preserveAspectRatio="xMidYMid meet">
<metadata>
Created by potrace 1.14, written by Peter Selinger 2001-2017
</metadata>
<g transform="translate(0.000000,512.000000) scale(0.100000,-0.100000)"
fill="#000000" stroke="none">
<path d="M3325 5106 c-220 -71 -418 -244 -526 -457 -51 -102 -78 -187 -95
-294 -20 -128 -5 -288 37 -404 12 -31 23 -65 27 -76 3 -11 19 -47 37 -81 l31
-61 -102 -309 c-56 -170 -102 -310 -103 -311 -1 -2 -1 -7 -1 -13 0 -5 -4 -10
-8 -10 -5 0 -9 6 -9 13 -2 158 -60 381 -140 542 -137 277 -398 536 -665 663
-72 34 -219 88 -259 96 -8 1 -39 8 -69 14 -30 6 -68 14 -85 17 -62 13 -304 14
-313 2 -35 -44 -73 -277 -73 -447 0 -221 49 -431 147 -625 45 -89 131 -226
174 -275 154 -180 295 -294 467 -378 184 -90 370 -138 566 -146 43 -1 83 -8
89 -14 8 -8 11 -200 10 -674 0 -365 -1 -667 -1 -673 -1 -5 -15 17 -33 50 -17
33 -50 90 -73 127 -33 53 -42 77 -44 120 -6 144 -69 350 -149 483 -175 293
-490 499 -828 540 -105 12 -260 7 -349 -12 -16 -4 -32 -7 -35 -8 -3 0 -26 -7
-52 -14 l-48 -14 -1 -51 c-1 -70 2 -154 6 -176 2 -10 7 -40 11 -67 11 -75 60
-217 106 -307 163 -312 493 -549 825 -592 77 -10 242 -10 323 1 119 15 106 24
173 -110 34 -66 65 -129 69 -140 43 -115 83 -290 93 -418 l7 -77 -39 -1 c-21
0 -56 -2 -78 -4 -22 -1 -87 -6 -145 -10 -58 -3 -123 -8 -145 -10 -120 -11
-166 -17 -220 -25 -33 -5 -78 -11 -100 -14 -442 -64 -953 -241 -1214 -423
l-75 -53 2113 0 c2065 0 2113 0 2090 19 -142 110 -481 262 -777 347 -355 102
-799 166 -1195 173 l-58 1 6 68 c4 37 9 75 11 84 3 10 7 30 10 45 40 236 197
548 365 730 l37 40 93 -24 c94 -24 256 -34 324 -19 17 3 46 8 65 11 145 23
330 125 461 255 110 109 175 213 224 356 39 118 63 295 41 313 -20 16 -145 50
-209 57 l-63 6 53 81 c108 161 196 385 217 553 3 21 8 57 12 79 15 91 6 333
-14 410 -9 33 -26 39 -147 50 -265 26 -516 -19 -750 -133 -76 -37 -162 -86
-200 -114 -133 -99 -256 -219 -345 -339 -35 -46 -61 -77 -58 -69 3 8 53 164
112 345 59 182 111 339 115 351 5 11 37 34 72 52 233 115 389 291 468 528 37
109 52 203 53 311 0 174 -52 350 -146 497 -38 60 -41 61 -101 42z m-264 -3244
c-11 -29 -23 -62 -25 -74 -3 -13 -8 -36 -11 -52 -8 -42 -12 -46 -91 -128 -94
-96 -200 -242 -263 -358 l-51 -95 -1 40 c-6 249 0 675 10 694 11 20 17 22 64
15 71 -9 304 -6 347 4 19 5 36 8 38 7 1 -1 -6 -25 -17 -53z"/>
</g>
</svg>
